<svg xmlns="http://www.w3.org/2000/svg" xmlns:xlink="http://www.w3.org/1999/xlink" width="230" height="150" viewBox="0 0 230 150">
    <defs>
        <path id="a" d="M0 150h230V0H0z"/>
    </defs>
    <g fill="none" fill-rule="evenodd">
        <path fill="#E1FCFF" d="M0 150h230V0H0z"/>
        <path fill="#C5EDEF" d="M46.274 86.513h3.646l-5.469-6.192h3.646l-5.469-6.193h3.646l-5.468-6.192-5.469 6.192h3.646l-5.468 6.193h3.645l-5.468 6.192h3.645l-5.468 6.192h9.114v8.257h3.645v-8.257h9.114zM140.427 85.523h3.347l-5.02-5.685h3.347l-5.02-5.685h3.346l-5.02-5.686-5.02 5.686h3.346l-5.02 5.685h3.347l-5.02 5.685h3.346l-5.02 5.685h8.367v7.58h3.347v-7.58h8.367zM204.54 91.55h3.346l-5.02-5.685h3.347l-5.02-5.685h3.346l-5.02-5.686-5.02 5.686h3.346l-5.02 5.685h3.347l-5.02 5.685h3.346l-5.02 5.685h8.367v7.58h3.347v-7.58h8.367z"/>
        <path fill="#C5EDEF" d="M125.96 81.49h4.395l-6.594-7.466h4.396l-6.594-7.468h4.396l-6.594-7.467-6.594 7.468h4.396l-6.594 7.466h4.396l-6.594 7.468h4.396l-6.594 7.466h10.99v9.958h4.396v-9.958h10.99z"/>
        <path fill="#84BF56" d="M29.992 100.154l-5.668-6.418h3.78l-5.669-6.418h3.78L20.545 80.9h3.778l-5.667-6.418L12.99 80.9h3.78L11.1 87.318h3.778l-5.667 6.418h3.778l-5.667 6.418z"/>
        <path fill="#6D9E3E" d="M12.99 93.736l-.946 1.07H25.27l-.945-1.07zM14.879 87.318l-.945 1.07h9.446l-.944-1.07zM16.768 80.9l-.945 1.07h5.668l-.945-1.07z"/>
        <path fill="#89714E" d="M16.768 108.712h3.778v-8.557h-3.778z"/>
        <path fill="#685236" d="M16.768 101.224h3.778v-1.07h-3.778z"/>
        <g>
            <path fill="#D8F4BE" d="M230 150H0v-38.438s30.799-18.329 113.7-18.329c82.901 0 116.3 18.329 116.3 18.329V150z"/>
            <path fill="#BFDD97" d="M49.118 140.698c0 .378-.604.684-1.35.684-.745 0-1.35-.306-1.35-.684 0-.378.605-.684 1.35-.684.746 0 1.35.306 1.35.684"/>
            <path fill="#77AF46" d="M47.768 140.997a.3.3 0 0 1-.299-.299v-15.436a.3.3 0 0 1 .598 0v15.436a.3.3 0 0 1-.299.3"/>
            <path fill="#84BF56" d="M47.768 135.783v.026h-.007a4.352 4.352 0 0 1-4.353-4.352v-.026h.008a4.352 4.352 0 0 1 4.352 4.352M47.768 134.108v.026h.007a4.352 4.352 0 0 0 4.353-4.352v-.026h-.008a4.352 4.352 0 0 0-4.352 4.352"/>
            <path fill="#FDB758" d="M49.042 122.375c0 2.739-.57 4.959-1.274 4.959-.703 0-1.274-2.22-1.274-4.959 0-2.739.571-4.959 1.274-4.959.704 0 1.274 2.22 1.274 4.959"/>
            <path fill="#E85638" d="M49.924 122.375c0 2.739-.965 4.959-2.156 4.959-1.19 0-2.156-2.22-2.156-4.959 0-2.739.966-4.959 2.156-4.959 1.191 0 2.156 2.22 2.156 4.959"/>
            <path fill="#E85638" d="M47.768 124.54c-2.727 0-4.938-.969-4.938-2.165 0-1.196 2.211-2.165 4.938-2.165s4.938.97 4.938 2.165c0 1.196-2.21 2.165-4.938 2.165"/>
            <path fill="#F37139" d="M49.293 123.906c-1.928 1.937-4.174 2.821-5.016 1.976-.842-.846.039-3.101 1.967-5.038 1.929-1.937 4.174-2.821 5.016-1.976.842.846-.04 3.101-1.967 5.038"/>
            <path fill="#F37139" d="M46.244 123.906c-1.928-1.937-2.81-4.192-1.967-5.038.842-.845 3.087.039 5.016 1.976 1.928 1.937 2.809 4.192 1.967 5.038-.842.845-3.088-.039-5.016-1.976"/>
            <path fill="#FCC300" d="M49.924 122.375a2.16 2.16 0 0 1-2.156 2.165 2.16 2.16 0 0 1-2.156-2.165 2.16 2.16 0 0 1 2.156-2.165 2.16 2.16 0 0 1 2.156 2.165"/>
            <path fill="#BFDD97" d="M60.376 141.414c0 .378-.604.684-1.35.684-.745 0-1.35-.306-1.35-.684 0-.378.605-.684 1.35-.684.746 0 1.35.306 1.35.684"/>
            <path fill="#77AF46" d="M59.026 141.554a.3.3 0 0 1-.299-.299v-11.577a.3.3 0 0 1 .598 0v11.577a.3.3 0 0 1-.299.299"/>
            <path fill="#84BF56" d="M59.026 137.568v.02h-.006a3.265 3.265 0 0 1-3.264-3.264v-.02h.006a3.264 3.264 0 0 1 3.264 3.264M59.026 136.312v.02h.006a3.265 3.265 0 0 0 3.264-3.264v-.02h-.006a3.264 3.264 0 0 0-3.264 3.264"/>
            <path fill="#FEC678" d="M59.981 127.512c0 2.054-.428 3.72-.955 3.72-.528 0-.956-1.666-.956-3.72 0-2.054.428-3.719.956-3.719.527 0 .955 1.665.955 3.72"/>
            <path fill="#F37139" d="M60.643 127.512c0 2.054-.724 3.72-1.617 3.72s-1.617-1.666-1.617-3.72c0-2.054.724-3.719 1.617-3.719s1.617 1.665 1.617 3.72"/>
            <path fill="#F37139" d="M59.026 129.136c-2.045 0-3.703-.727-3.703-1.624 0-.897 1.658-1.624 3.703-1.624s3.703.727 3.703 1.624c0 .897-1.658 1.624-3.703 1.624"/>
            <path fill="#E85638" d="M60.17 128.66c-1.447 1.453-3.13 2.117-3.763 1.483-.63-.634.03-2.326 1.475-3.78 1.447-1.451 3.131-2.114 3.762-1.48.632.634-.029 2.326-1.475 3.778"/>
            <path fill="#E85638" d="M57.883 128.66c-1.446-1.451-2.107-3.143-1.475-3.777.63-.634 2.315.029 3.762 1.48 1.446 1.454 2.106 3.146 1.475 3.78-.632.634-2.316-.03-3.762-1.482"/>
            <path fill="#FCC300" d="M60.643 127.512a1.62 1.62 0 0 1-1.617 1.624 1.62 1.62 0 0 1-1.617-1.624 1.62 1.62 0 0 1 1.617-1.624 1.62 1.62 0 0 1 1.617 1.624"/>
            <path fill="#BFDD97" d="M37.204 140.89c0 .378-.604.684-1.35.684-.745 0-1.35-.306-1.35-.684 0-.378.605-.684 1.35-.684.746 0 1.35.306 1.35.684"/>
            <path fill="#77AF46" d="M35.854 141.03a.3.3 0 0 1-.299-.3v-11.576a.3.3 0 0 1 .598 0v11.577a.3.3 0 0 1-.299.299"/>
            <path fill="#84BF56" d="M35.854 137.044v.02h-.006a3.265 3.265 0 0 1-3.264-3.264v-.02h.006a3.264 3.264 0 0 1 3.264 3.264M35.854 135.788v.02h.006a3.265 3.265 0 0 0 3.264-3.264v-.02h-.006a3.264 3.264 0 0 0-3.264 3.264"/>
            <path fill="#FEC678" d="M36.81 126.988c0 2.054-.428 3.719-.956 3.719-.527 0-.956-1.665-.956-3.719s.428-3.719.956-3.719.956 1.665.956 3.719"/>
            <path fill="#F37139" d="M37.47 126.988c0 2.054-.723 3.719-1.616 3.719-.893 0-1.617-1.665-1.617-3.719s.724-3.719 1.617-3.719 1.617 1.665 1.617 3.719"/>
            <path fill="#F37139" d="M35.854 128.612c-2.045 0-3.703-.727-3.703-1.624 0-.897 1.658-1.624 3.703-1.624s3.703.727 3.703 1.624c0 .897-1.658 1.624-3.703 1.624"/>
            <path fill="#E85638" d="M36.997 128.136c-1.446 1.452-3.13 2.116-3.762 1.482-.63-.634.03-2.326 1.475-3.779 1.447-1.452 3.131-2.115 3.762-1.48.632.633-.029 2.325-1.475 3.777"/>
            <path fill="#E85638" d="M34.71 128.136c-1.445-1.452-2.106-3.144-1.474-3.778.63-.634 2.315.03 3.762 1.481 1.446 1.453 2.106 3.145 1.475 3.78-.632.633-2.316-.03-3.762-1.483"/>
            <path fill="#FCC300" d="M37.47 126.988a1.62 1.62 0 0 1-1.616 1.624 1.62 1.62 0 0 1-1.617-1.624 1.62 1.62 0 0 1 1.617-1.624 1.62 1.62 0 0 1 1.617 1.624"/>
            <path fill="#BFDD97" d="M189.91 140.282c0 .379-.604.684-1.35.684-.745 0-1.349-.305-1.349-.684 0-.377.604-.684 1.349-.684.746 0 1.35.306 1.35.684"/>
            <path fill="#77AF46" d="M188.56 140.582a.3.3 0 0 1-.299-.299v-15.436a.3.3 0 0 1 .598 0v15.436a.3.3 0 0 1-.299.3"/>
            <path fill="#84BF56" d="M188.56 135.367v.026h-.007a4.352 4.352 0 0 1-4.353-4.352v-.026h.008a4.352 4.352 0 0 1 4.352 4.352M188.56 133.693v.026h.007a4.352 4.352 0 0 0 4.353-4.352v-.026h-.008a4.352 4.352 0 0 0-4.352 4.352"/>
            <path fill="#FDB758" d="M189.834 121.96c0 2.739-.57 4.959-1.274 4.959-.703 0-1.274-2.22-1.274-4.96 0-2.738.571-4.958 1.274-4.958.704 0 1.274 2.22 1.274 4.959"/>
            <path fill="#E85638" d="M190.716 121.96c0 2.739-.965 4.959-2.156 4.959-1.19 0-2.156-2.22-2.156-4.96 0-2.738.966-4.958 2.156-4.958 1.191 0 2.156 2.22 2.156 4.959"/>
            <path fill="#E85638" d="M188.56 124.125c-2.727 0-4.938-.97-4.938-2.165 0-1.196 2.211-2.165 4.938-2.165s4.938.969 4.938 2.165c0 1.196-2.21 2.165-4.938 2.165"/>
            <path fill="#F37139" d="M190.085 123.49c-1.928 1.938-4.174 2.822-5.016 1.977-.842-.846.039-3.101 1.967-5.038 1.929-1.937 4.174-2.821 5.016-1.976.842.846-.04 3.1-1.967 5.038"/>
            <path fill="#F37139" d="M187.036 123.49c-1.928-1.936-2.809-4.191-1.967-5.037.842-.845 3.087.039 5.016 1.976 1.928 1.937 2.809 4.192 1.967 5.038-.842.845-3.088-.04-5.016-1.976"/>
            <path fill="#FCC300" d="M190.716 121.96a2.16 2.16 0 0 1-2.156 2.165 2.16 2.16 0 0 1-2.156-2.165 2.16 2.16 0 0 1 2.156-2.165 2.16 2.16 0 0 1 2.156 2.165"/>
            <path fill="#BFDD97" d="M201.168 140.999c0 .378-.604.684-1.35.684-.745 0-1.35-.306-1.35-.684 0-.378.605-.684 1.35-.684.746 0 1.35.306 1.35.684"/>
            <path fill="#77AF46" d="M199.818 141.139a.3.3 0 0 1-.299-.3v-11.576a.3.3 0 0 1 .598 0v11.577a.3.3 0 0 1-.299.299"/>
            <path fill="#84BF56" d="M199.818 137.153v.02h-.006a3.265 3.265 0 0 1-3.264-3.264v-.02h.006a3.264 3.264 0 0 1 3.264 3.264M199.818 135.897v.02h.006a3.265 3.265 0 0 0 3.264-3.264v-.02h-.006a3.264 3.264 0 0 0-3.264 3.264"/>
            <path fill="#FEC678" d="M200.774 127.097c0 2.054-.428 3.72-.955 3.72-.528 0-.956-1.666-.956-3.72 0-2.054.428-3.719.956-3.719.527 0 .955 1.665.955 3.72"/>
            <path fill="#F37139" d="M201.435 127.097c0 2.054-.724 3.72-1.617 3.72s-1.617-1.666-1.617-3.72c0-2.054.724-3.719 1.617-3.719s1.617 1.665 1.617 3.72"/>
            <path fill="#F37139" d="M199.818 128.721c-2.045 0-3.703-.727-3.703-1.624 0-.897 1.658-1.624 3.703-1.624s3.703.727 3.703 1.624c0 .897-1.658 1.624-3.703 1.624"/>
            <path fill="#E85638" d="M200.962 128.245c-1.446 1.452-3.13 2.116-3.762 1.482-.631-.634.029-2.326 1.475-3.779 1.446-1.452 3.13-2.115 3.761-1.48.632.633-.029 2.325-1.475 3.777"/>
            <path fill="#E85638" d="M198.675 128.245c-1.446-1.452-2.107-3.144-1.475-3.778.63-.634 2.315.03 3.762 1.481 1.446 1.453 2.106 3.145 1.475 3.78-.632.633-2.316-.03-3.762-1.483"/>
            <path fill="#FCC300" d="M201.435 127.097a1.62 1.62 0 0 1-1.617 1.624 1.62 1.62 0 0 1-1.617-1.624 1.62 1.62 0 0 1 1.617-1.624 1.62 1.62 0 0 1 1.617 1.624"/>
            <path fill="#BFDD97" d="M177.996 140.475c0 .378-.604.684-1.35.684-.745 0-1.35-.306-1.35-.684 0-.378.605-.684 1.35-.684.746 0 1.35.306 1.35.684"/>
            <path fill="#77AF46" d="M176.646 140.614a.3.3 0 0 1-.299-.299v-11.577a.3.3 0 0 1 .598 0v11.577a.3.3 0 0 1-.299.3"/>
            <path fill="#84BF56" d="M176.646 136.629v.02h-.006a3.265 3.265 0 0 1-3.264-3.264v-.02h.006a3.264 3.264 0 0 1 3.264 3.263M176.646 135.373v.02h.006a3.265 3.265 0 0 0 3.264-3.264v-.02h-.006a3.264 3.264 0 0 0-3.264 3.264"/>
            <path fill="#FEC678" d="M177.602 126.573c0 2.054-.428 3.719-.955 3.719-.528 0-.956-1.665-.956-3.72 0-2.053.428-3.718.956-3.718.527 0 .955 1.665.955 3.719"/>
            <path fill="#F37139" d="M178.263 126.573c0 2.054-.724 3.719-1.617 3.719s-1.617-1.665-1.617-3.72c0-2.053.724-3.718 1.617-3.718s1.617 1.665 1.617 3.719"/>
            <path fill="#F37139" d="M176.646 128.197c-2.045 0-3.703-.727-3.703-1.624 0-.897 1.658-1.624 3.703-1.624s3.703.727 3.703 1.624c0 .897-1.658 1.624-3.703 1.624"/>
            <path fill="#E85638" d="M177.79 127.721c-1.446 1.452-3.13 2.116-3.762 1.482-.631-.634.029-2.326 1.475-3.779 1.447-1.452 3.13-2.115 3.762-1.481.632.634-.03 2.326-1.475 3.778"/>
            <path fill="#E85638" d="M175.503 127.721c-1.446-1.452-2.107-3.144-1.475-3.778.631-.634 2.315.029 3.762 1.481 1.446 1.453 2.106 3.145 1.475 3.779-.632.634-2.316-.03-3.762-1.482"/>
            <path fill="#FCC300" d="M178.263 126.573a1.62 1.62 0 0 1-1.617 1.624 1.62 1.62 0 0 1-1.617-1.624 1.62 1.62 0 0 1 1.617-1.624 1.62 1.62 0 0 1 1.617 1.624"/>
            <path fill="#EBEBEB" d="M67.981 72.178v-7.575c0-.839-.679-1.518-1.518-1.518h-4.555c-.839 0-1.518.68-1.518 1.518v16.685H46.725v30.365H87.72V91.916L67.981 72.178z"/>
            <path fill="#CCC" d="M67.981 111.67V64.603c0-.839-.679-1.518-1.518-1.518h-4.555c-.839 0-1.518.679-1.518 1.518v47.067h7.591z"/>
            <mask id="b" fill="#fff">
                <use xlink:href="#a"/>
            </mask>
            <path fill="#434854" d="M72.536 111.67h10.628V99.524H72.536z" mask="url(#b)"/>
            <path fill="#469FCC" d="M83.164 91.932L72.536 81.304V93.45h10.628zM49.762 93.45h7.591v-7.591h-7.591z" mask="url(#b)"/>
            <path fill="#CCC" d="M46.725 82.823H60.39v-1.518H46.725zM87.719 94.969L67.98 75.23v-3.036l19.738 19.737z" mask="url(#b)"/>
            <path fill="#F46969" d="M60.39 76.75H45.207c-.84 0-1.518.678-1.518 1.517v1.52c0 .838.679 1.517 1.518 1.517H60.39V76.75zM91.584 90.3L67.981 66.697v6.44L88.364 93.52a1.518 1.518 0 0 0 2.147 0l1.073-1.073a1.518 1.518 0 0 0 0-2.147" mask="url(#b)"/>
            <path fill="#3390B5" d="M49.762 87.377h7.591v-1.518h-7.591zM72.536 82.823L83.164 93.45v-1.518L72.536 81.305z" mask="url(#b)"/>
            <path fill="#84BF56" d="M54.993 111.67a6.01 6.01 0 0 0 .842-3.037 6.074 6.074 0 0 0-12.146 0c0 1.112.32 2.14.842 3.037h10.462zM86.2 102.56a6.059 6.059 0 0 0-5.514 3.56 4.506 4.506 0 0 0-2.077-.523 4.554 4.554 0 0 0-4.554 4.554c0 .536.11 1.041.277 1.52h17.1a6.01 6.01 0 0 0 .841-3.038 6.073 6.073 0 0 0-6.072-6.073" mask="url(#b)"/>
            <path fill="#6D9E3E" d="M80.686 106.12a4.506 4.506 0 0 0-2.077-.523 4.554 4.554 0 0 0-4.555 4.554c0 .536.11 1.041.28 1.52h6.635a6.01 6.01 0 0 1-.842-3.038c0-.898.208-1.745.56-2.513" mask="url(#b)"/>
            <path fill="#84BF56" d="M223.126 111.118l-5.668-6.418h3.78l-5.668-6.418h3.779l-5.668-6.418h3.777l-5.666-6.418-5.668 6.418h3.779l-5.668 6.418h3.777l-5.667 6.418h3.779l-5.667 6.418z" mask="url(#b)"/>
            <path fill="#6D9E3E" d="M206.124 104.7l-.945 1.07h13.225l-.945-1.07zM208.013 98.282l-.945 1.07h9.446l-.944-1.07zM209.902 91.864l-.945 1.07h5.668l-.945-1.07z" mask="url(#b)"/>
            <path fill="#89714E" d="M209.902 119.675h3.778v-8.557h-3.778z" mask="url(#b)"/>
            <path fill="#685236" d="M209.902 112.187h3.778v-1.07h-3.778z" mask="url(#b)"/>
            <path fill="#966F48" d="M159.606 72.795l10.688 13.807a.745.745 0 0 1-.589 1.201h-22.584a.745.745 0 0 1-.589-1.2l10.688-13.808a1.509 1.509 0 0 1 2.386 0" mask="url(#b)"/>
            <path fill="#BFDD97" d="M173.205 120.21h-29.583a1.785 1.785 0 1 1 0-3.572h29.583a1.786 1.786 0 0 1 0 3.572" mask="url(#b)"/>
            <path fill="#EDD98A" d="M171.701 118.05h-26.576l2.796-30.248h20.984z" mask="url(#b)"/>
            <path fill="#C9AD5F" d="M160.68 108.477h-4.533v-3.359a2.267 2.267 0 0 1 4.533 0v3.36zM160.68 98.633h-4.533v-3.36a2.267 2.267 0 0 1 4.533 0v3.36zM160.68 118.05h-4.533v-3.36a2.267 2.267 0 0 1 4.533 0v3.36z" mask="url(#b)"/>
            <path fill="#DBC375" d="M169.109 90.007h-21.391l.203-2.205h20.984z" mask="url(#b)"/>
            <path fill="#D17E46" d="M137.556 100.694l-2.076 2.076-5.356-5.355 2.077-2.076 5.355 5.355zm-2.542-8.17l5.355 5.357-2.077 2.077-5.355-5.356 2.077-2.077zm2.812-2.811l5.356 5.355-2.077 2.077-5.355-5.356 2.076-2.076zm2.813-2.813l5.356 5.355-2.077 2.077-5.355-5.355 2.076-2.077zm2.813-2.813l5.355 5.356-2.076 2.076-5.355-5.356 2.076-2.076zm2.813-2.812l5.355 5.355-2.076 2.076-5.356-5.355 2.077-2.076zm-10.785 22.968l2.812-2.813.737-.736 2.076-2.077.737-.736 2.076-2.076.736-.737 2.077-2.077.736-.736 2.077-2.076.736-.736 2.812-2.813-6.827-6.828-2.813 2.813-.736.736-2.077 2.076-.736.736-2.077 2.077-.736.737-2.076 2.076-.736.736-2.077 2.077-.737.736-2.812 2.813 6.828 6.828zM137.879 59.266l-2.076-2.076 5.355-5.356 2.076 2.077-5.355 5.355zm8.169-2.542l-5.356 5.355-2.077-2.077 5.356-5.355 2.077 2.077zm2.812 2.812l-5.355 5.356-2.077-2.077 5.356-5.355 2.076 2.076zm2.813 2.813l-5.355 5.356-2.077-2.077 5.355-5.355 2.077 2.076zm2.813 2.813l-5.356 5.355-2.076-2.076 5.356-5.355 2.076 2.076zm2.812 2.813l-5.355 5.355-2.076-2.076 5.355-5.356 2.076 2.077zM134.33 57.19l2.813 2.812.736.737 2.077 2.076.736.737 2.076 2.076.737.736 2.077 2.077.736.736 2.076 2.077.736.736 2.813 2.812 6.828-6.827-2.813-2.813-.736-.736-2.076-2.077-.736-.736-2.077-2.077-.737-.736-2.076-2.076-.736-.737-2.077-2.076-.736-.737-2.813-2.812-6.828 6.828z" mask="url(#b)"/>
            <path fill="#D17E46" d="M155.452 84.27l4.128-4.129-1.15-1.15-4.128 4.128-19.973 19.973 1.15 1.15z" mask="url(#b)"/>
            <path fill="#D17E46" d="M159.58 80.141l-4.128-4.128L135.48 56.04l-1.15 1.15 19.972 19.973 4.129 4.128zM179.306 59.589l2.076-2.076 5.356 5.355-2.077 2.076-5.355-5.355zm2.542 8.169l-5.355-5.356 2.077-2.077 5.355 5.356-2.077 2.077zm-2.812 2.812l-5.356-5.355 2.077-2.077 5.355 5.356-2.076 2.076zm-2.813 2.813l-5.356-5.355 2.077-2.077 5.355 5.355-2.076 2.077zm-2.813 2.813l-5.355-5.356 2.076-2.076 5.355 5.356-2.076 2.076zm-2.813 2.812l-5.355-5.355 2.076-2.076 5.356 5.355-2.077 2.076zm10.785-22.968l-2.812 2.813-.737.736-2.076 2.077-.737.736-2.076 2.076-.736.737-2.077 2.077-.736.736-2.077 2.076-.736.736-2.812 2.813 6.827 6.828 2.813-2.813.736-.736 2.077-2.076.736-.736 2.077-2.077.736-.737 2.076-2.076.737-.736 2.076-2.077.737-.736 2.812-2.813-6.828-6.828zM178.983 101.017l2.076 2.076-5.355 5.356-2.076-2.077 5.355-5.355zm-8.169 2.542l5.356-5.355 2.077 2.077-5.356 5.355-2.077-2.077zm-2.812-2.812l5.355-5.356 2.077 2.077-5.356 5.355-2.076-2.076zm-2.813-2.813l5.355-5.356 2.077 2.077-5.355 5.355-2.077-2.076zm-2.813-2.813l5.356-5.355 2.076 2.076-5.356 5.355-2.076-2.076zm-2.812-2.813l5.355-5.355 2.076 2.076-5.355 5.356-2.076-2.077zm22.968 10.785l-2.813-2.812-.736-.737-2.077-2.076-.736-.737-2.076-2.076-.737-.736-2.077-2.077-.736-.736-2.076-2.077-.736-.736-2.813-2.812-6.828 6.827 2.813 2.813.736.736 2.076 2.077.736.736 2.077 2.077.737.736 2.076 2.076.736.736 2.077 2.077.736.737 2.813 2.812 6.828-6.828z" mask="url(#b)"/>
            <path fill="#D17E46" d="M162.559 77.163l19.973-19.973-1.15-1.15-19.973 19.973-4.128 4.128 1.15 1.15z" mask="url(#b)"/>
            <path fill="#D17E46" d="M182.532 103.093L162.56 83.12l-4.128-4.128-1.15 1.149 4.128 4.129 19.973 19.973z" mask="url(#b)"/>
            <path fill="#F8A872" d="M158.413 82.778a2.655 2.655 0 1 1 .001-5.31 2.655 2.655 0 0 1 0 5.31" mask="url(#b)"/>
        </g>
    </g>
</svg>
