<svg xmlns="http://www.w3.org/2000/svg" width="35" height="35" viewBox="0 0 35 35">
    <g fill="none" fill-rule="nonzero">
        <path fill="#25C16F" d="M17.5 35C7.84 35 0 27.16 0 17.5S7.84 0 17.5 0h13.125A4.377 4.377 0 0 1 35 4.375V17.5C35 27.16 27.16 35 17.5 35z"/>
        <path fill="#FFF" d="M17.5 7.77c-4.48 0-8.05 3.57-8.05 8.05v5.355c0 1.47 1.19 2.695 2.695 2.695h2.24v-6.265H11.27V15.82c0-3.465 2.8-6.265 6.265-6.265s6.265 2.8 6.265 6.265v1.785h-3.115v6.265h2.1v.14a2.42 2.42 0 0 1-2.415 2.415h-2.415a.388.388 0 0 0-.385.385c0 .21.175.385.385.385H20.3a3.212 3.212 0 0 0 3.22-3.22V23.8a2.699 2.699 0 0 0 1.995-2.59v-5.39c.035-4.48-3.57-8.05-8.015-8.05z"/>
    </g>
</svg>
