<svg xmlns="http://www.w3.org/2000/svg" xmlns:xlink="http://www.w3.org/1999/xlink" width="249" height="40" viewBox="0 0 249 40">
    <defs>
        <path id="a" d="M.066 0h14.909v27.753H.065V0z"/>
        <path id="c" d="M14.248 0H.06v27.753h14.188V0z"/>
        <path id="e" d="M34.098 35H0V.901h34.098z"/>
    </defs>
    <g fill="none" fill-rule="evenodd">
        <path fill="#FFF" d="M48.62 1.023c-5.008 0-6.793 3.489-6.793 6.753v1.999h-1.05c-.77 0-1.374.603-1.374 1.373 0 .771.603 1.374 1.373 1.374h1.051v13.782c0 .812.637 1.449 1.45 1.449s1.45-.637 1.45-1.449V12.522h3.21c.77 0 1.373-.603 1.373-1.374 0-.77-.603-1.373-1.373-1.373h-3.21V7.776c0-1.827.674-4.006 3.892-4.006a1.36 1.36 0 0 0 1.374-1.373 1.36 1.36 0 0 0-1.374-1.374M59.947 9.32c-2.16 0-4.005.885-5.03 2.36v-.759c0-.813-.636-1.449-1.45-1.449-.811 0-1.448.636-1.448 1.45v15.381c0 .813.637 1.45 1.449 1.45.813 0 1.45-.637 1.45-1.45v-8.486c0-3.553 1.88-5.674 5.029-5.674.778 0 1.412-.634 1.412-1.41 0-.78-.634-1.413-1.412-1.413M70.252 11.916c2.99 0 4.54 1.689 4.61 5.02h-9.695c.3-3.24 2.099-5.02 5.085-5.02m7.474 4.954c0-.837-.136-2.98-1.388-4.794-1.294-1.88-3.342-2.831-6.086-2.831-5.11 0-8.042 3.4-8.042 9.33 0 6.129 2.912 9.368 8.42 9.368 3.7 0 5.713-1.825 6.079-2.192.246-.245.486-.528.486-1.038 0-.737-.6-1.336-1.336-1.336-.381 0-.586.117-.823.275-1.068.8-2.286 1.582-4.405 1.582-3.31 0-5.392-2.178-5.481-5.702h10.823c1.753 0 1.753-1.602 1.753-2.662M87.525 17.108c-2.168-.747-4.042-1.393-4.042-3.004 0-1.772 1.965-2.037 3.136-2.037 2.093 0 3.143.733 3.962 1.522.273.273.597.411.964.411.736 0 1.335-.6 1.335-1.336 0-.394-.168-.668-.313-.863-1.23-1.624-3.341-2.518-5.948-2.518-3.722 0-6.034 1.847-6.034 4.821 0 3.636 3.19 4.715 6.005 5.668 2.124.718 3.96 1.339 3.96 2.894 0 2.135-2.368 2.454-3.78 2.454-1.922 0-3.441-.585-4.644-1.787-.371-.371-.75-.448-1.001-.448-.736 0-1.335.598-1.335 1.335 0 .309.084.542.316.867 1.105 1.402 3.594 2.817 6.665 2.817 4.18 0 6.677-1.958 6.677-5.238 0-3.517-3.147-4.601-5.923-5.558"/>
        <g transform="translate(97)">
            <mask id="b" fill="#fff">
                <use xlink:href="#a"/>
            </mask>
            <path fill="#FFF" d="M7.766 9.245c-2 0-3.792.795-4.801 2.078V1.45C2.965.637 2.328 0 1.515 0 .704 0 .066.637.066 1.45v24.854c0 .813.637 1.449 1.45 1.449s1.45-.636 1.45-1.45v-9.357c0-3.363 1.615-5.068 4.801-5.068 3.062 0 4.31 1.39 4.31 4.803v9.623c0 .813.636 1.449 1.45 1.449.812 0 1.449-.636 1.449-1.45V16.189c0-4.607-2.425-6.943-7.208-6.943" mask="url(#b)"/>
        </g>
        <path fill="#FFF" d="M135.19 9.245c-2.482 0-4.34.828-5.528 2.464-1.126-1.571-3.297-2.464-6.028-2.464-2.192 0-3.823.947-4.69 2.056v-.38c0-.812-.635-1.448-1.448-1.448-.812 0-1.45.636-1.45 1.448v15.383c0 .813.638 1.449 1.45 1.449.813 0 1.449-.636 1.449-1.45v-9.357c0-3.457 1.406-5.068 4.424-5.068 3.14 0 4.423 1.39 4.423 4.803v9.623c0 .813.637 1.449 1.449 1.449.813 0 1.449-.636 1.449-1.45V16.189c0-2.82 1.556-4.31 4.5-4.31 3.11 0 4.499 1.48 4.499 4.803v9.623c0 .813.637 1.449 1.449 1.449.813 0 1.449-.636 1.449-1.45V16.189c0-3.167-1.283-6.943-7.397-6.943M152.504 25.271c-1.862 0-4.083-.518-4.083-2.983 0-2.596 2.463-2.983 3.93-2.983h5.107v1.354c0 3.17-2.568 4.613-4.954 4.613m.72-16.027c-3.928 0-5.752 1.944-6.492 3.107a1.404 1.404 0 0 0-.224.766c0 .736.599 1.336 1.336 1.336.437 0 .762-.17 1.16-.607l.002-.002c1.18-1.335 2.363-1.854 4.218-1.854 2.65 0 4.234 1.47 4.234 3.931v.787h-5.106c-4.235 0-6.867 2.137-6.867 5.58 0 3.54 2.539 5.653 6.792 5.653 2.19 0 4.099-.817 5.18-2.175v.575a1.412 1.412 0 0 0 2.823 0v-10.42c0-4.119-2.704-6.678-7.056-6.678M172.28 9.32c-2.158 0-4.004.885-5.03 2.36v-.759c0-.813-.635-1.449-1.448-1.449s-1.45.636-1.45 1.45v15.381c0 .813.637 1.45 1.45 1.45s1.449-.637 1.449-1.45v-8.486c0-3.553 1.88-5.674 5.03-5.674.778 0 1.41-.634 1.41-1.41 0-.78-.632-1.413-1.41-1.413"/>
        <g transform="translate(176)">
            <mask id="d" fill="#fff">
                <use xlink:href="#c"/>
            </mask>
            <path fill="#FFF" d="M7.332 16.909l6.032-4.817a1.48 1.48 0 0 0 .581-1.171c0-.812-.636-1.45-1.449-1.45-.247 0-.62.039-.984.358l-8.555 6.996V1.45C2.958.637 2.322 0 1.51 0S.058.637.058 1.45v24.854c0 .813.637 1.449 1.45 1.449s1.449-.636 1.449-1.45v-5.985l2.034-1.635 6.56 8.41.002.003c.352.442.76.657 1.245.657.813 0 1.45-.636 1.45-1.45 0-.23-.035-.574-.316-.902l-6.6-8.492z" mask="url(#d)"/>
        </g>
        <path fill="#FFF" d="M200.127 11.916c2.99 0 4.54 1.689 4.61 5.02h-9.696c.3-3.24 2.099-5.02 5.086-5.02m7.473 4.954c0-.837-.135-2.98-1.387-4.794-1.294-1.88-3.342-2.831-6.086-2.831-5.111 0-8.042 3.4-8.042 9.33 0 6.129 2.912 9.368 8.42 9.368 3.7 0 5.713-1.825 6.079-2.192.246-.246.486-.528.486-1.038 0-.737-.6-1.336-1.336-1.336-.382 0-.586.117-.824.275-1.067.8-2.286 1.582-4.404 1.582-3.31 0-5.393-2.178-5.482-5.702h10.824c1.752 0 1.752-1.602 1.752-2.662M216.948 12.522a1.36 1.36 0 0 0 1.374-1.374 1.36 1.36 0 0 0-1.374-1.373h-2.226V6.034c0-.8-.65-1.449-1.449-1.449-.772 0-1.45.677-1.45 1.449v3.741h-1.24c-.77 0-1.373.603-1.373 1.373 0 .771.603 1.374 1.373 1.374h1.24v10.22c0 3.044 1.908 5.011 4.86 5.011.791 0 1.411-.604 1.411-1.373 0-.771-.62-1.374-1.41-1.374-1.229 0-1.962-.846-1.962-2.264v-10.22h2.226zM228.352 11.916c2.991 0 4.541 1.689 4.61 5.02h-9.696c.301-3.24 2.099-5.02 5.086-5.02m7.473 4.954c0-.837-.135-2.98-1.387-4.794-1.294-1.88-3.342-2.831-6.086-2.831-5.111 0-8.042 3.4-8.042 9.33 0 6.129 2.912 9.368 8.421 9.368 3.7 0 5.712-1.825 6.078-2.192.246-.246.486-.528.486-1.038 0-.737-.599-1.336-1.336-1.336-.382 0-.586.117-.824.275-1.067.8-2.286 1.582-4.404 1.582-3.31 0-5.393-2.178-5.482-5.702h10.824c1.752 0 1.752-1.602 1.752-2.662M247.03 9.32c-2.16 0-4.005.885-5.03 2.36v-.759c0-.813-.636-1.449-1.45-1.449-.812 0-1.448.636-1.448 1.45v15.381c0 .813.636 1.45 1.449 1.45.813 0 1.449-.637 1.449-1.45v-8.486c0-3.553 1.88-5.674 5.03-5.674.778 0 1.41-.634 1.41-1.41 0-.78-.632-1.413-1.41-1.413"/>
        <g transform="translate(0 5)">
            <mask id="f" fill="#fff">
                <use xlink:href="#e"/>
            </mask>
            <path fill="#EE5A24" d="M17.05 35C7.632 35 0 27.367 0 17.951S7.633.901 17.05.901h12.786a4.263 4.263 0 0 1 4.262 4.263v12.787c0 9.416-7.633 17.05-17.049 17.05" mask="url(#f)"/>
        </g>
        <path fill="#FFF" d="M25.275 22.13c0 1.452-.424 2.629-.947 2.629-.523 0-.947-1.177-.947-2.628 0-1.452.424-2.63.947-2.63.523 0 .947 1.178.947 2.63M21.607 22.13c0-2.843.385-5.318.953-6.595a.25.25 0 0 0-.338-.328L15.8 18.335a3.289 3.289 0 0 1-1.061.31l-1.968.227a3.28 3.28 0 0 0 0 6.517l.106.013.645 3.659a1.256 1.256 0 0 0 2.472-.436l-.498-2.826c.103.037.205.079.304.127l6.42 3.129a.25.25 0 0 0 .339-.328c-.568-1.278-.953-3.753-.953-6.596"/>
    </g>
</svg>
