<?xml version="1.0" encoding="UTF-8"?>
<svg width="88px" height="36px" viewBox="0 0 88 36" version="1.1" xmlns="http://www.w3.org/2000/svg" xmlns:xlink="http://www.w3.org/1999/xlink">
    <!-- Generator: sketchtool 53.1 (72631) - https://sketchapp.com -->
    <title>1047085C-D525-4468-8A7C-23048CA2ACD1</title>
    <desc>Created with sketchtool.</desc>
    <defs>
        <path d="M29.148,0.333 C28.679,0.5 28.249,0.764 27.887,1.107 L27.887,1.107 C27.538,1.448 27.265,1.858 27.086,2.311 L27.086,2.311 C26.89,2.809 26.794,3.341 26.802,3.877 L26.802,3.877 C26.785,4.366 26.877,4.854 27.07,5.305 L27.07,5.305 C27.239,5.661 27.48,5.977 27.779,6.233 L27.779,6.233 C28.077,6.485 28.415,6.687 28.778,6.829 L28.778,6.829 C29.152,6.984 29.533,7.114 29.924,7.236 L29.924,7.236 C30.25,7.351 30.531,7.452 30.763,7.545 L30.763,7.545 C30.962,7.624 31.15,7.728 31.322,7.855 L31.322,7.855 C31.452,7.946 31.559,8.068 31.631,8.21 L31.631,8.21 C31.822,8.633 31.712,9.133 31.363,9.437 L31.363,9.437 C31.122,9.662 30.755,9.775 30.263,9.775 L30.263,9.775 L30.261,9.781 C29.81,9.776 29.365,9.677 28.954,9.488 L28.954,9.488 C28.465,9.261 28.013,8.957 27.615,8.592 L27.615,8.592 L26.324,11.032 C27.511,11.886 28.937,12.345 30.399,12.344 L30.399,12.344 C31.043,12.353 31.685,12.256 32.299,12.058 L32.299,12.058 C32.82,11.889 33.301,11.615 33.712,11.254 L33.712,11.254 C34.095,10.914 34.395,10.49 34.588,10.016 L34.588,10.016 C34.795,9.501 34.897,8.95 34.89,8.395 L34.89,8.395 C34.89,7.51 34.661,6.793 34.205,6.242 L34.205,6.242 C33.748,5.692 33.028,5.252 32.046,4.922 L32.046,4.922 C31.8,4.84 31.551,4.762 31.299,4.69 L31.299,4.69 C31.067,4.625 30.841,4.541 30.624,4.437 L30.624,4.437 C30.442,4.351 30.277,4.234 30.139,4.09 L30.139,4.09 C30.014,3.95 29.949,3.767 29.955,3.579 L29.955,3.579 C29.95,3.291 30.087,3.019 30.323,2.854 L30.323,2.854 C30.602,2.658 30.938,2.56 31.278,2.575 L31.278,2.575 C31.605,2.58 31.928,2.646 32.23,2.77 L32.23,2.77 C32.587,2.915 32.919,3.115 33.215,3.364 L33.215,3.364 L34.414,0.997 C33.846,0.69 33.242,0.454 32.614,0.295 L32.614,0.295 C32.027,0.14 31.423,0.06 30.815,0.056 L30.815,0.056 C30.793,0.056 30.77,0.056 30.747,0.056 L30.747,0.056 C30.202,0.056 29.662,0.149 29.148,0.333 L29.148,0.333 Z M13.1,0.378 L8.41,0.378 L8.41,12.013 L11.423,12.013 L11.423,7.536 L14.299,12.013 L18.05,12.013 L14.406,7.242 L14.407,7.242 C15.24,7.051 15.87,6.681 16.296,6.131 L16.296,6.131 C16.721,5.581 16.934,4.863 16.934,3.978 L16.934,3.978 C16.938,3.503 16.857,3.031 16.695,2.585 L16.695,2.585 C16.378,1.693 15.682,0.99 14.796,0.664 L14.796,0.664 C14.285,0.474 13.745,0.377 13.2,0.377 L13.2,0.377 C13.167,0.377 13.133,0.378 13.1,0.378 L13.1,0.378 Z M11.422,2.712 L11.991,2.712 C12.589,2.712 13.041,2.836 13.361,3.082 L13.361,3.082 C13.682,3.339 13.858,3.736 13.836,4.147 L13.836,4.147 L13.837,4.141 C13.86,4.553 13.682,4.949 13.361,5.205 L13.361,5.205 C13.041,5.454 12.587,5.577 11.991,5.577 L11.991,5.577 L11.422,5.577 L11.422,2.712 Z M43.538,0.378 L43.538,4.867 L39.181,4.867 L39.181,0.378 L36.168,0.378 L36.168,12.016 L39.181,12.016 L39.181,7.218 L43.538,7.218 L43.538,12.016 L46.546,12.019 L46.546,0.378 L43.538,0.378 Z M18.698,0.378 L18.698,12.016 L25.294,12.016 L25.294,9.45 L21.712,9.45 L21.712,7.437 L25.095,7.437 L25.095,4.882 L21.712,4.882 L21.712,2.937 L25.293,2.944 L25.293,0.378 L18.698,0.378 Z M0.583,0.378 L0.583,12.013 L3.596,12.013 L3.596,7.443 L6.9,7.443 L6.9,4.882 L3.596,4.882 L3.596,2.937 L7.225,2.937 L7.225,0.378 L0.583,0.378 Z" id="path-1"></path>
        <path d="M4.183,1.185 C1.062,2.402 -0.484,5.928 0.728,9.059 L0.728,9.059 C1.345,10.652 2.598,11.91 4.183,12.526 L4.183,12.526 C5.851,13.156 7.691,13.156 9.358,12.526 L9.358,12.526 C10.118,12.234 10.811,11.79 11.395,11.224 L11.395,11.224 C11.965,10.669 12.416,10.006 12.725,9.273 L12.725,9.273 C13.361,7.725 13.361,5.989 12.725,4.441 L12.725,4.441 C12.416,3.707 11.964,3.044 11.395,2.488 L11.395,2.488 C10.811,1.922 10.118,1.479 9.358,1.185 L9.358,1.185 C8.525,0.871 7.648,0.713 6.771,0.713 L6.771,0.713 C5.894,0.713 5.017,0.871 4.183,1.185 L4.183,1.185 Z M5.526,9.826 C5.14,9.673 4.787,9.445 4.488,9.157 L4.488,9.157 C4.19,8.865 3.949,8.519 3.782,8.138 L3.782,8.138 C3.433,7.32 3.433,6.394 3.782,5.576 L3.782,5.576 C4.119,4.804 4.745,4.196 5.526,3.883 L5.526,3.883 C6.332,3.567 7.228,3.567 8.034,3.883 L8.034,3.883 C8.421,4.04 8.777,4.268 9.079,4.556 L9.079,4.556 C9.383,4.846 9.625,5.192 9.795,5.576 L9.795,5.576 C10.142,6.395 10.142,7.32 9.795,8.138 L9.795,8.138 C9.625,8.52 9.382,8.866 9.079,9.157 L9.079,9.157 C8.777,9.445 8.421,9.672 8.034,9.826 L8.034,9.826 C7.631,9.986 7.205,10.066 6.78,10.066 L6.78,10.066 C6.354,10.066 5.929,9.986 5.526,9.826 L5.526,9.826 Z" id="path-3"></path>
        <path d="M7.598,0.039 L7.598,6.366 C7.598,6.706 7.585,7.053 7.559,7.406 L7.559,7.406 C7.54,7.741 7.46,8.068 7.321,8.371 L7.321,8.371 C7.19,8.658 6.978,8.903 6.714,9.075 L6.714,9.075 C6.442,9.255 6.056,9.346 5.555,9.345 L5.555,9.345 C5.052,9.344 4.663,9.253 4.385,9.075 L4.385,9.075 C4.117,8.904 3.907,8.661 3.777,8.371 L3.777,8.371 C3.644,8.067 3.566,7.739 3.546,7.406 L3.546,7.406 C3.52,7.053 3.509,6.706 3.509,6.366 L3.509,6.366 L3.509,0.039 L0.494,0.039 L0.494,6.781 C0.494,8.595 0.91,9.917 1.738,10.749 L1.738,10.749 C2.568,11.58 3.84,11.997 5.555,11.999 L5.555,11.999 C7.265,11.999 8.534,11.582 9.359,10.749 L9.359,10.749 C10.183,9.915 10.594,8.593 10.593,6.781 L10.593,6.781 L10.5930018,0.039 L7.598,0.039 Z" id="path-5"></path>
        <path d="M7.118,0.715 C7.099,0.715 7.08,0.715 7.061,0.715 L7.061,0.715 C6.194,0.706 5.334,0.857 4.523,1.165 L4.523,1.165 C3.796,1.442 3.133,1.867 2.578,2.414 L2.578,2.414 C2.03,2.964 1.605,3.625 1.331,4.352 L1.331,4.352 C0.746,5.967 0.748,7.739 1.34,9.353 L1.34,9.353 C1.618,10.078 2.04,10.741 2.581,11.297 L2.581,11.297 C3.128,11.845 3.783,12.272 4.504,12.552 L4.504,12.552 C5.291,12.858 6.128,13.01 6.972,12.999 L6.972,12.999 C7.605,13.002 8.236,12.918 8.846,12.751 L8.846,12.751 C9.425,12.595 9.977,12.352 10.484,12.033 L10.484,12.033 C10.982,11.721 11.422,11.325 11.785,10.861 L11.785,10.861 C12.164,10.376 12.459,9.83 12.661,9.247 L12.661,9.247 C12.82,8.793 12.924,8.322 12.969,7.844 L12.969,7.844 C13.02,7.321 13.045,6.795 13.047,6.269 L13.047,6.269 L13.047,6.161 L7.056,6.161 L7.056,8.511 L9.531,8.511 C9.494,8.816 9.394,9.109 9.241,9.374 L9.241,9.374 C9.101,9.605 8.915,9.803 8.693,9.953 L8.693,9.953 C8.466,10.105 8.214,10.216 7.947,10.278 L7.947,10.278 C7.666,10.345 7.377,10.378 7.087,10.377 L7.087,10.377 C6.633,10.388 6.182,10.301 5.764,10.123 L5.764,10.123 C5.396,9.962 5.069,9.715 4.811,9.407 L4.811,9.407 C4.547,9.084 4.351,8.712 4.234,8.311 L4.234,8.311 C3.968,7.376 3.978,6.384 4.266,5.455 L4.266,5.455 C4.398,5.042 4.607,4.658 4.882,4.32 L4.882,4.32 C5.138,4.01 5.461,3.762 5.827,3.595 L5.827,3.595 C6.215,3.421 6.636,3.333 7.061,3.34 L7.061,3.34 C7.576,3.332 8.081,3.478 8.514,3.757 L8.514,3.757 C8.939,4.035 9.286,4.491 9.552,5.131 L9.552,5.131 L12.412,3.941 C11.879,2.841 11.156,2.029 10.244,1.504 L10.244,1.504 C9.332,0.997 8.309,0.727 7.268,0.715 L7.268,0.715 L7.118,0.715 Z" id="path-7"></path>
        <path d="M4.987,0.713 C4.458,0.719 3.936,0.813 3.438,0.99 L3.438,0.99 C2.968,1.157 2.539,1.421 2.177,1.764 L2.177,1.764 C1.829,2.104 1.557,2.515 1.376,2.968 L1.376,2.968 C1.181,3.467 1.085,3.999 1.092,4.535 L1.092,4.535 C1.075,5.025 1.167,5.512 1.361,5.962 L1.361,5.962 C1.528,6.317 1.769,6.634 2.068,6.889 L2.068,6.889 C2.367,7.141 2.705,7.342 3.069,7.484 L3.069,7.484 C3.442,7.64 3.823,7.77 4.214,7.894 L4.214,7.894 C4.541,8.007 4.821,8.111 5.052,8.204 L5.052,8.204 C5.251,8.278 5.439,8.379 5.612,8.503 L5.612,8.503 C5.742,8.594 5.849,8.716 5.921,8.857 L5.921,8.857 C6.112,9.282 6.002,9.78 5.653,10.085 L5.653,10.085 C5.412,10.311 5.046,10.426 4.553,10.426 L4.553,10.426 C4.102,10.42 3.657,10.32 3.245,10.131 L3.245,10.131 C2.756,9.904 2.304,9.602 1.907,9.236 L1.907,9.236 L0.615,11.675 C1.802,12.533 3.226,12.996 4.689,12.999 L4.689,12.999 C5.334,13.009 5.976,12.911 6.589,12.713 L6.589,12.713 C7.11,12.544 7.591,12.271 8.003,11.911 L8.003,11.911 C8.385,11.57 8.685,11.147 8.879,10.673 L8.879,10.673 C9.071,10.193 9.173,9.685 9.18,9.17 L9.18,9.17 L9.18,9.053 C9.18,8.164 8.951,7.446 8.495,6.895 L8.495,6.895 C8.04,6.344 7.32,5.904 6.336,5.576 L6.336,5.576 C6.09,5.494 5.842,5.415 5.59,5.344 L5.59,5.344 C5.357,5.279 5.131,5.194 4.914,5.089 L4.914,5.089 C4.731,5.005 4.567,4.887 4.428,4.741 L4.428,4.741 C4.304,4.603 4.238,4.42 4.245,4.233 L4.245,4.233 C4.24,3.945 4.378,3.672 4.613,3.507 L4.613,3.507 C4.892,3.312 5.228,3.214 5.567,3.229 L5.567,3.229 C5.895,3.234 6.218,3.299 6.521,3.421 L6.521,3.421 C6.877,3.568 7.209,3.767 7.505,4.016 L7.505,4.016 L8.704,1.655 C8.136,1.349 7.531,1.112 6.906,0.953 L6.906,0.953 C6.318,0.798 5.713,0.718 5.105,0.713 L5.105,0.713 L4.987,0.713 Z" id="path-9"></path>
        <path d="M24.012,0.865 C19.24,0.871 15.371,4.753 15.366,9.542 L15.366,9.542 L15.366,9.955 L14.954,9.955 C12.226,9.955 10.014,12.175 10.014,14.913 L10.014,14.913 C10.014,17.652 12.226,19.872 14.954,19.872 L14.954,19.872 L15.777,19.872 L16.189,19.872 L16.189,9.542 C16.194,5.208 19.694,1.696 24.012,1.692 L24.012,1.692 L60.653,1.692 C64.971,1.696 68.471,5.209 68.476,9.542 L68.476,9.542 L68.476,19.868 L68.894,19.868 L69.717,19.868 C72.442,19.868 74.652,17.651 74.652,14.915 L74.652,14.915 L74.652,14.904 C74.648,12.17 72.436,9.954 69.711,9.958 L69.711,9.958 L69.299,9.958 L69.299,9.542 C69.293,4.753 65.426,0.872 60.653,0.865 L60.653,0.865 L24.012,0.865 Z M80.37,9.318 C83.374,12.332 83.374,17.219 80.371,20.233 L80.371,20.233 L80.37,20.233 L80.954,20.818 C84.278,17.482 84.278,12.071 80.954,8.734 L80.954,8.734 L80.37,9.318 Z M2.999,20.818 L3.581,20.233 C0.583,17.217 0.583,12.335 3.581,9.318 L3.581,9.318 L2.999,8.734 C-0.321,12.073 -0.321,17.479 2.999,20.818 L2.999,20.818 Z M78.693,10.385 L78.114,10.967 C80.21,13.069 80.211,16.477 78.118,18.58 L78.118,18.58 C78.117,18.582 78.115,18.583 78.114,18.584 L78.114,18.584 L78.697,19.169 C81.115,16.745 81.116,12.814 78.7,10.387 L78.7,10.387 C78.699,10.387 78.698,10.385 78.697,10.385 L78.697,10.385 L78.693,10.385 Z M5.26,19.169 L5.843,18.584 C3.747,16.483 3.745,13.075 5.839,10.971 L5.839,10.971 C5.84,10.971 5.841,10.969 5.843,10.967 L5.843,10.967 L5.26,10.385 C2.843,12.811 2.843,16.743 5.26,19.169 L5.26,19.169 Z M76.12,12.345 C77.455,13.688 77.455,15.863 76.12,17.206 L76.12,17.206 L76.701,17.792 C78.362,16.125 78.362,13.422 76.701,11.755 L76.701,11.755 L76.12,12.345 Z M7.244,17.792 C7.246,17.794 7.249,17.795 7.251,17.797 L7.251,17.797 L7.833,17.213 C6.496,15.87 6.496,13.694 7.833,12.352 L7.833,12.352 L7.251,11.762 C5.59,13.425 5.587,16.125 7.244,17.792 L7.244,17.792 Z" id="path-11"></path>
    </defs>
    <g id="Update---v1.1.1" stroke="none" stroke-width="1" fill="none" fill-rule="evenodd">
        <g id="WhiteBg" transform="translate(-22.000000, -22.000000)">
            <g id="Group-23" transform="translate(22.000000, 21.000000)">
                <g id="Group-3" transform="translate(20.000000, 9.134600)">
                    <mask id="mask-2" fill="white">
                        <use xlink:href="#path-1"></use>
                    </mask>
                    <g id="Clip-2"></g>
                    <polygon id="Fill-1" fill="#4D4D4D" mask="url(#mask-2)" points="-4.418 17.345 51.545 17.345 51.545 -4.944 -4.418 -4.944"></polygon>
                </g>
                <polygon id="Fill-4" fill="#4D4D4D" points="0.0004 24.1732 0.0004 26.7342 2.4764 26.7342 2.4764 35.8082 5.4904 35.8082 5.4904 26.7342 7.9674 26.7342 7.9674 24.1732"></polygon>
                <polygon id="Fill-5" fill="#4D4D4D" points="16.0546 24.1732 16.0546 28.6632 11.7036 28.6632 11.7036 24.1732 8.6886 24.1732 8.6886 35.8082 11.7036 35.8082 11.7036 31.0082 16.0546 31.0082 16.0546 35.8082 19.0696 35.8082 19.0696 24.1732"></polygon>
                <g id="Group-8" transform="translate(20.000000, 23.134600)">
                    <mask id="mask-4" fill="white">
                        <use xlink:href="#path-3"></use>
                    </mask>
                    <g id="Clip-7"></g>
                    <polygon id="Fill-6" fill="#4D4D4D" mask="url(#mask-4)" points="-4.685 17.999 18.202 17.999 18.202 -4.287 -4.685 -4.287"></polygon>
                </g>
                <g id="Group-11" transform="translate(34.000000, 24.134600)">
                    <mask id="mask-6" fill="white">
                        <use xlink:href="#path-5"></use>
                    </mask>
                    <g id="Clip-10"></g>
                    <polygon id="Fill-9" fill="#4D4D4D" mask="url(#mask-6)" points="-4.506 16.999 15.592 16.999 15.592 -4.962 -4.506 -4.962"></polygon>
                </g>
                <g id="Group-14" transform="translate(45.000000, 23.134600)">
                    <mask id="mask-8" fill="white">
                        <use xlink:href="#path-7"></use>
                    </mask>
                    <g id="Clip-13"></g>
                    <polygon id="Fill-12" fill="#4D4D4D" mask="url(#mask-8)" points="-4.106 18 18.046 18 18.046 -4.286 -4.106 -4.286"></polygon>
                </g>
                <polygon id="Fill-15" fill="#4D4D4D" points="66.6967 24.1732 66.6967 28.6632 62.3447 28.6632 62.3447 24.1732 59.3297 24.1732 59.3297 35.8082 62.3447 35.8082 62.3447 31.0082 66.6967 31.0082 66.6967 35.8082 69.7097 35.8082 69.7097 24.1732"></polygon>
                <polygon id="Fill-16" fill="#4D4D4D" points="70.4335 24.1732 70.4335 26.7342 72.9085 26.7342 72.9085 35.8082 75.9235 35.8082 75.9235 26.7342 78.3985 26.7342 78.3985 24.1732"></polygon>
                <g id="Group-19" transform="translate(78.000000, 23.134600)">
                    <mask id="mask-10" fill="white">
                        <use xlink:href="#path-9"></use>
                    </mask>
                    <g id="Clip-18"></g>
                    <polygon id="Fill-17" fill="#4D4D4D" mask="url(#mask-10)" points="-4.384 18 14.18 18 14.18 -4.287 -4.384 -4.287"></polygon>
                </g>
                <g id="Group-22" transform="translate(1.000000, 0.134600)">
                    <mask id="mask-12" fill="white">
                        <use xlink:href="#path-11"></use>
                    </mask>
                    <g id="Clip-21"></g>
                    <polygon id="Fill-20" fill="#3973E6" mask="url(#mask-12)" points="-4.491 25.818 88.447 25.818 88.447 -4.135 -4.491 -4.135"></polygon>
                </g>
            </g>
        </g>
    </g>
</svg>