<?xml version="1.0" encoding="UTF-8"?>
<svg width="378px" height="151px" viewBox="0 0 378 151" version="1.1" xmlns="http://www.w3.org/2000/svg" xmlns:xlink="http://www.w3.org/1999/xlink">
    <!-- Generator: sketchtool 53.1 (72631) - https://sketchapp.com -->
    <title>B9409112-EE71-4DA7-8870-6049DD6C50F1</title>
    <desc>Created with sketchtool.</desc>
    <defs>
        <polygon id="path-1" points="0 0.782876984 34.8768378 0.782876984 34.8768378 50.5512202 0 50.5512202"></polygon>
        <polygon id="path-3" points="0.35735509 0.311023947 52.6652807 0.311023947 52.6652807 53 0.35735509 53"></polygon>
        <polygon id="path-5" points="0.772580488 0.303009827 38.471122 0.303009827 38.471122 53 0.772580488 53"></polygon>
        <polygon id="path-7" points="0.913529262 0.907494912 357.820875 0.907494912 357.820875 85.9996301 0.913529262 85.9996301"></polygon>
    </defs>
    <g id="Update---v1.1.1" stroke="none" stroke-width="1" fill="none" fill-rule="evenodd">
        <g id="Landing-Page" transform="translate(-531.000000, -274.000000)">
            <g id="Group-25" transform="translate(531.000000, 274.000000)">
                <path d="M287.638554,86.5944753 L287.638554,36.389966 L274.684674,36.389966 L274.684674,55.7493246 L255.916628,55.7493246 L255.916628,36.389966 L242.934822,36.389966 L242.934822,86.5813807 L255.916628,86.5813807 L255.916628,65.8882485 L274.684674,65.8882485 L274.684674,86.5813807 L287.638554,86.5944753 Z M217.490632,76.9419204 C215.545129,76.9232139 213.627553,76.494835 211.857053,75.6811022 C209.749581,74.6990109 207.804078,73.393297 206.091292,71.8163389 L200.53032,82.3368755 C205.64634,86.0220563 211.786307,88.0012042 218.08266,87.9974629 C220.858492,88.0367466 223.625014,87.6195916 226.266802,86.7628338 C228.51018,86.0332802 230.584141,84.8547706 232.358365,83.296519 C234.004129,81.8299293 235.296166,80.0041747 236.13208,77.9576835 C237.021985,75.7353511 237.461352,73.361496 237.427841,70.9670638 C237.427841,67.1490668 236.44485,64.0550114 234.478869,61.683027 C232.511026,59.3110425 229.411255,57.4123326 225.177693,55.9887678 C224.118371,55.6333443 223.04788,55.3003686 221.962494,54.98797 C220.962748,54.7073725 219.989066,54.3425957 219.052619,53.8936396 C218.268833,53.5269922 217.559516,53.0219167 216.96004,52.3989902 C216.425725,51.7928995 216.142743,51.0053558 216.168807,50.1953643 C216.148328,48.9532525 216.742218,47.7822255 217.756858,47.0713785 C218.957671,46.2258446 220.404231,45.801207 221.869408,45.8685504 C223.276872,45.8872569 224.669442,46.1715957 225.974511,46.704731 C227.512295,47.3313988 228.9421,48.1956392 230.213658,49.2675218 L235.381805,39.0612544 C232.929914,37.7368341 230.327223,36.7173298 227.629584,36.0308012 C225.097639,35.3648497 222.493086,35.0187794 219.875501,35.0019436 C217.431057,34.9682719 214.997782,35.3723323 212.694829,36.197289 C210.671134,36.9156187 208.82058,38.0548446 207.260455,39.5345289 C205.759905,41.0029893 204.585157,42.7726244 203.812541,44.7274538 C202.971041,46.8787015 202.555877,49.1721186 202.589388,51.4823716 C202.516781,53.5943356 202.911466,55.6969464 203.745519,57.6386813 C204.467868,59.1763557 205.50671,60.5400597 206.795024,61.6418727 C208.081475,62.7287204 209.535482,63.5967021 211.099331,64.212146 C212.713446,64.8818388 214.355487,65.4411632 216.036625,65.9686865 C217.444089,66.4625381 218.65421,66.9040116 219.650232,67.3024601 C220.508487,67.6410478 221.318338,68.0900038 222.061166,68.6381043 C222.623407,69.0290702 223.079529,69.5565935 223.390437,70.1682961 C224.211458,71.9940507 223.740441,74.1471691 222.234306,75.4603655 C221.199187,76.4293623 219.618583,76.9157313 217.498079,76.9157313 L217.490632,76.9419204 Z M196.086384,47.4586031 L196.086384,36.389966 L167.678327,36.389966 L167.678327,86.5813807 L196.091969,86.5813807 L196.091969,75.5146143 L180.660133,75.5146143 L180.660133,66.8347975 L195.235575,66.8347975 L195.235575,55.8147974 L180.660133,55.8147974 L180.660133,47.4305433 L196.086384,47.4586031 Z M146.732064,52.645916 C146.830735,50.870669 146.06929,49.1590241 144.686028,48.0515992 C143.312075,46.9909405 141.364711,46.4559346 138.786223,46.4559346 L136.336193,46.4559346 L136.336193,58.8115789 L138.786223,58.8115789 C141.351679,58.8115789 143.312075,58.2784436 144.686028,57.2103024 C146.071151,56.1047481 146.838182,54.3931032 146.73951,52.6178562 L146.732064,52.645916 Z M149.18954,65.9948756 L164.887602,86.5682862 L148.731556,86.5682862 L136.341778,67.2631764 L136.341778,86.5682862 L123.361834,86.5682862 L123.361834,36.389966 L143.563408,36.389966 C146.054396,36.3375878 148.534213,36.7547428 150.870677,37.6245951 C154.687213,39.0275827 157.682728,42.063648 159.049234,45.9097047 C159.749242,47.8327331 160.097385,49.8680005 160.078767,51.9163624 C160.078767,55.7362301 159.162799,58.8302854 157.329,61.2022699 C155.495201,63.5742543 152.78453,65.1717895 149.196987,65.9948756 L149.18954,65.9948756 Z M102.62036,47.4305433 L102.62036,55.8147974 L116.856968,55.8147974 L116.856968,66.8628573 L102.62036,66.8628573 L102.62036,86.5682862 L89.6385542,86.5682862 L89.6385542,36.389966 L118.258847,36.389966 L118.258847,47.4305433 L102.62036,47.4305433 Z" id="Fill-1" fill="#FFFFFF"></path>
                <g id="Group-5" transform="translate(0.638554, 99.000000)">
                    <mask id="mask-2" fill="white">
                        <use xlink:href="#path-1"></use>
                    </mask>
                    <g id="Clip-4"></g>
                    <polygon id="Fill-3" fill="#FFFFFF" mask="url(#mask-2)" points="-0.000189189189 11.7394444 10.8422432 11.7394444 10.8422432 50.5512202 24.0344054 50.5512202 24.0344054 11.7394444 34.8768378 11.7394444 34.8768378 0.782876984 -0.000189189189 0.782876984"></polygon>
                </g>
                <polygon id="Fill-6" fill="#FFFFFF" points="70.5670275 119.295139 51.7082074 119.295139 51.7082074 100 38.6385542 100 38.6385542 150 51.7082074 150 51.7082074 129.376025 70.5670275 129.376025 70.5670275 150 83.6385542 150 83.6385542 100 70.5670275 100"></polygon>
                <path d="M129.098971,130.028181 C128.372223,131.682239 127.335592,133.17351 126.044414,134.423408 C124.755081,135.667693 123.238869,136.648153 121.582473,137.314266 C118.144251,138.693271 114.318676,138.693271 110.880455,137.314266 C109.231436,136.651895 107.726292,135.671436 106.449871,134.423408 C105.175294,133.169768 104.151575,131.676625 103.435893,130.028181 C101.943661,126.499276 101.943661,122.506337 103.435893,118.979303 C104.870945,115.644993 107.547372,113.021703 110.880455,111.68012 C114.318676,110.310471 118.144251,110.310471 121.582473,111.68012 C123.238869,112.351847 124.753236,113.334178 126.044414,114.578463 C127.337436,115.828361 128.374067,117.323375 129.098971,118.979303 C130.581981,122.508208 130.581981,126.499276 129.098971,130.028181 M141.604949,114.078878 C140.284259,110.914838 138.356715,108.053918 135.931146,105.658903 C133.433639,103.213368 130.476842,101.301098 127.235987,100.036231 C120.116064,97.3212565 112.265704,97.3212565 105.147626,100.036231 C91.828206,105.286553 85.2265991,120.49677 90.402377,134.008023 C93.0326903,140.871238 98.3818549,146.297444 105.147626,148.963769 C112.265704,151.678744 120.116064,151.678744 127.235987,148.963769 C130.476842,147.697031 133.433639,145.786632 135.931146,143.341097 C138.35856,140.947953 140.286104,138.087033 141.604949,134.922993 C144.316422,128.246889 144.316422,120.754982 141.604949,114.078878" id="Fill-8" fill="#FFFFFF"></path>
                <path d="M180.885383,126.978569 C180.885383,128.430322 180.830175,129.911666 180.721598,131.4189 C180.640626,132.841063 180.298334,134.235486 179.709445,135.531893 C179.14816,136.756174 178.250103,137.795518 177.122012,138.527867 C175.966317,139.300903 174.321107,139.685571 172.184543,139.681873 C170.047979,139.678174 168.388047,139.291656 167.206588,138.527867 C166.067455,137.806614 165.167559,136.76542 164.619155,135.531893 C164.052349,134.229938 163.719259,132.837364 163.634606,131.4189 C163.522349,129.907967 163.476342,128.430322 163.476342,126.978569 L163.476342,100 L150.638554,100 L150.638554,128.753962 C150.638554,136.484317 152.405222,142.121188 155.938558,145.666425 C159.470054,149.213511 164.885996,150.990753 172.184543,151 C179.473889,151 184.873268,149.222758 188.384521,145.666425 C191.895774,142.11379 193.64772,136.47507 193.638518,128.753962 L193.638554,100 L180.885383,100 L180.885383,126.978569 Z" id="Fill-10" fill="#FFFFFF"></path>
                <g id="Group-14" transform="translate(197.638554, 98.000000)">
                    <mask id="mask-4" fill="white">
                        <use xlink:href="#path-3"></use>
                    </mask>
                    <g id="Clip-13"></g>
                    <path d="M26.8820634,33.7472637 L37.5374132,33.7472637 C37.3699932,35.0531393 36.9421422,36.3125094 36.2817635,37.4509651 C35.6864926,38.440603 34.8828768,39.2888641 33.9248627,39.934361 C32.9501065,40.5872988 31.8637371,41.0597951 30.7197007,41.3276671 C29.504976,41.6141412 28.2623479,41.7573783 27.0159994,41.7536578 C25.0609064,41.7964429 23.1206952,41.4243986 21.3200006,40.6635679 C19.7332315,39.9697052 18.3287642,38.9168198 17.2182118,37.5904817 C16.0816164,36.2064768 15.2370757,34.6085464 14.7348159,32.8915618 C13.5851989,28.8827841 13.6317044,24.6265969 14.8687518,20.6438623 C15.4398399,18.8692108 16.3401872,17.2191942 17.5232882,15.7775224 C18.6245394,14.4437434 20.0159852,13.3796966 21.591593,12.6653715 C23.2602118,11.9175624 25.073928,11.5417976 26.9025259,11.5697009 C29.1180499,11.5362169 31.2945092,12.1593912 33.1565911,13.3610944 C34.9870493,14.5479158 36.4770868,16.5104497 37.6229834,19.2505562 L49.9357906,14.1516886 C47.6402771,9.430446 44.5281262,5.9462508 40.6030585,3.6972428 C36.4156995,1.38126681 31.687016,0.21490782 26.9025259,0.317220012 C23.1727814,0.27071447 19.4672198,0.921792057 15.9755837,2.23696878 C12.8466909,3.42937087 9.99683128,5.25610856 7.60644643,7.59998787 C5.24954557,9.95874895 3.42094766,12.7918666 2.24156712,15.9114583 C-0.282753695,22.8389238 -0.269732143,30.4379294 2.27505111,37.357954 C3.47303387,40.4701049 5.29047044,43.3088031 7.61946798,45.6954675 C9.9726484,48.0467877 12.7927445,49.8809663 15.8974544,51.0789491 C19.2811977,52.3922656 22.8863073,53.0452034 26.51746,52.9986978 C29.244545,53.007999 31.9586084,52.6508364 34.5889618,51.934651 C37.0779384,51.263111 39.4534415,50.2232471 41.639202,48.8559842 C43.7784569,47.5147643 45.6740228,45.8145217 47.2347488,43.8296652 C48.864303,41.7462169 50.1385548,39.4060581 51.0054181,36.9059201 C51.6918399,34.9601283 52.1382931,32.9380673 52.3336164,30.8862428 C52.5642839,28.4884171 52.6740369,26.07943 52.6647358,23.6704429 L26.8820634,23.6704429 L26.8820634,33.7472637 Z" id="Fill-12" fill="#FFFFFF" mask="url(#mask-4)"></path>
                </g>
                <polygon id="Fill-15" fill="#FFFFFF" points="288.574522 119.295139 269.708207 119.295139 269.708207 100 256.638554 100 256.638554 150 269.708207 150 269.708207 129.376025 288.574522 129.376025 288.574522 150 301.638554 150 301.638554 100 288.574522 100"></polygon>
                <polygon id="Fill-17" fill="#FFFFFF" points="304.638554 111.007567 315.2051 111.007567 315.2051 150 328.073853 150 328.073853 111.007567 338.638554 111.007567 338.638554 100 304.638554 100"></polygon>
                <g id="Group-21" transform="translate(338.638554, 98.000000)">
                    <mask id="mask-6" fill="white">
                        <use xlink:href="#path-5"></use>
                    </mask>
                    <g id="Clip-20"></g>
                    <path d="M35.4559463,26.8168219 C33.4507756,24.4524801 30.2832146,22.5699358 25.951361,21.161748 C24.8707756,20.8045854 23.7749707,20.4716057 22.6658488,20.1665294 C21.644239,19.8856359 20.6492634,19.5191722 19.6923366,19.0708588 C18.8914098,18.7099758 18.1665805,18.2039955 17.5539951,17.5826815 C17.0079951,16.9855503 16.7188244,16.202397 16.747361,15.3987812 C16.7245317,14.1617338 17.3333122,12.9953748 18.3701415,12.2847701 C19.5972146,11.4476704 21.0735073,11.0309807 22.5707268,11.0979487 C24.0089707,11.1146907 25.4319951,11.393724 26.7675073,11.9201667 C28.3351171,12.5470614 29.7961902,13.4064838 31.0974585,14.4705306 L36.3786293,4.34720425 C33.8731171,3.0301673 31.2135073,2.01820671 28.4568732,1.33364514 C25.8695561,0.669545998 23.2099463,0.325404988 20.5351171,0.304942549 C18.0353122,0.271458559 15.5507268,0.673266441 13.1955073,1.4936242 C11.1275561,2.20794932 9.23653171,3.3389641 7.6422878,4.81225967 C6.11272683,6.2743939 4.9122878,8.03230339 4.11897073,9.97623504 C3.26097073,12.11549 2.83672683,14.3961217 2.87097073,16.6953557 C2.79487317,18.795546 3.19819024,20.8864352 4.05238537,22.815485 C4.79053171,24.342727 5.85209268,25.6988286 7.16667805,26.7963594 C8.48316585,27.8734278 9.96897073,28.7347104 11.5670195,29.3448631 C13.2164341,30.0108225 14.8924829,30.568889 16.6103854,31.0990522 C18.0505317,31.58457 19.2852146,32.029163 20.3030195,32.4272504 C21.1781415,32.7490688 22.0076049,33.1825004 22.7685805,33.7145238 C23.3393122,34.1051704 23.8054098,34.6260325 24.1250195,35.2324647 C24.9639951,37.0517615 24.482678,39.1910164 22.9436049,40.4968921 C21.8858488,41.4716482 20.2725805,41.9590263 18.1038,41.9590263 C16.1157512,41.9367036 14.1543366,41.5069924 12.3470195,40.697796 C10.1915561,39.7211796 8.20350732,38.4246051 6.45516585,36.854578 L0.772580488,47.3164647 C5.99287317,50.9978434 12.2652146,52.9845602 18.7011659,52.9975817 C21.5396049,53.0385066 24.3647268,52.6218169 27.0642878,51.7698354 C29.3567268,51.0462092 31.4760439,49.8761297 33.2909707,48.3302855 C34.9708244,46.8681513 36.2892146,45.0544352 37.1472146,43.0212129 C38.054678,40.8112695 38.5055561,38.4506482 38.4694098,36.0714247 C38.4694098,32.2598305 37.464922,29.1774432 35.4559463,26.8168219" id="Fill-19" fill="#FFFFFF" mask="url(#mask-6)"></path>
                </g>
                <g id="Group-24" transform="translate(6.638554, 0.000000)">
                    <mask id="mask-8" fill="white">
                        <use xlink:href="#path-7"></use>
                    </mask>
                    <g id="Clip-23"></g>
                    <path d="M326.290446,49.8625056 C332.03906,55.5909529 332.03906,64.8652295 326.290446,70.5936768 L328.791865,73.0907397 C335.939041,65.9805843 335.939041,54.4552517 328.791865,47.3487957 L326.290446,49.8625056 Z M337.359921,41.5001194 L334.871521,43.987934 C343.889647,52.9496153 343.897086,67.4825214 334.888259,76.4534511 C334.88268,76.4590001 334.877101,76.4645491 334.871521,76.4682485 L337.380379,78.9634617 C347.782189,68.627471 347.789629,51.860156 337.395257,41.5130672 C337.389678,41.5093678 337.384099,41.5038188 337.380379,41.5001194 L337.359921,41.5001194 Z M347.090347,34.4639511 L344.57963,36.9536153 C357.507036,49.8070154 357.507036,70.6473174 344.583349,83.5025672 C344.581489,83.5025672 344.581489,83.5025672 344.57963,83.5044168 L347.090347,85.9996301 C361.397718,71.7700709 361.397718,48.6953599 347.090347,34.4658007 L347.090347,34.4639511 Z M29.9253365,47.3728414 C22.7781603,54.4681994 22.7670016,65.982434 29.8992994,73.0907397 C29.9085984,73.0999881 29.9178973,73.1055371 29.9253365,73.1147855 L32.428615,70.6214219 C26.6744221,64.8948243 26.6744221,55.6149987 32.428615,49.8902508 L29.9253365,47.3728414 Z M21.3591399,41.5001194 C10.9610493,51.8472082 10.9610493,68.6163729 21.3591399,78.9634617 L23.8661379,76.4682485 C14.8480121,67.5084168 14.8424328,52.9736611 23.8512596,44.004581 C23.856839,43.999032 23.8605586,43.993483 23.8661379,43.987934 L21.3591399,41.5001194 Z M14.1301329,36.9536153 L11.6287142,34.4639511 C-2.65819905,48.7046083 -2.65819905,71.7589728 11.6287142,85.9996301 L14.1301329,83.5044168 C1.2306236,70.638069 1.2306236,49.8181134 14.1301329,36.9536153 L14.1301329,36.9536153 Z M319.972737,60.8255366 C319.972737,72.4895949 310.465486,81.9469895 298.735785,81.9469895 L295.192884,81.9469895 L293.394466,81.9469895 L293.394466,37.9098979 C293.375868,19.427933 278.315282,4.44925495 259.734112,4.43075819 L102.057324,4.43075819 C83.4742942,4.44925495 68.4118482,19.4260833 68.3913905,37.9098979 L68.3913905,81.9617869 L66.6190098,81.9617869 L63.0742485,81.9617869 C51.3333889,81.9617869 41.8149794,72.4932943 41.8149794,60.8162883 C41.8149794,49.1374326 51.3333889,39.6707896 63.0742485,39.6707896 L64.8466291,39.6707896 L64.8466291,37.9098979 C64.8726662,17.4820736 81.5177943,0.929321092 102.057324,0.907124977 L259.734112,0.907124977 C280.269922,0.933020444 296.91133,17.4839233 296.937368,37.9098979 L296.937368,39.6837374 L298.709748,39.6837374 C310.437589,39.66894 319.957859,49.1152364 319.972737,60.7792947 L319.972737,60.8255366 Z" id="Fill-22" fill="#3973E6" mask="url(#mask-8)"></path>
                </g>
            </g>
        </g>
    </g>
</svg>